<?xml version="1.0" standalone="no"?>
<!DOCTYPE svg PUBLIC "-//W3C//DTD SVG 20010904//EN"
 "http://www.w3.org/TR/2001/REC-SVG-20010904/DTD/svg10.dtd">
<svg version="1.0" xmlns="http://www.w3.org/2000/svg"
 width="510.000000pt" height="510.000000pt" viewBox="0 0 510.000000 510.000000"
 preserveAspectRatio="xMidYMid meet">
<metadata>
Created by potrace 1.11, written by Peter Selinger 2001-2013
</metadata>
<g transform="translate(0.000000,510.000000) scale(0.100000,-0.100000)"
fill="#000000" stroke="none">
<path d="M0 2565 l0 -2535 2539 0 2538 0 0 2535 0 2535 -2538 0 -2539 0 0
-2535z m4770 2246 c13 -1 15 -254 14 -2233 -1 -1228 -2 -2238 -3 -2244 -1 -8
-636 -11 -2247 -10 l-2246 1 0 2230 c1 1227 1 2235 1 2242 1 7 22 13 54 15 40
2 4365 1 4427 -1z"/>
<path d="M872 3386 l-1 -124 217 -1 c119 0 236 0 259 -1 l42 0 0 -717 c0 -395
0 -742 1 -770 l0 -53 154 0 154 0 0 766 c0 421 2 768 5 770 3 3 115 6 248 7
l244 2 0 123 1 122 -662 0 -662 0 0 -124z"/>
<path d="M2339 3498 c0 -7 -2 -410 -2 -896 l-2 -882 153 0 152 0 1 48 c0 26 0
135 -1 242 -1 107 -1 202 -1 210 0 8 1 198 1 423 0 224 4 407 8 407 4 0 22
-28 40 -62 17 -35 45 -85 60 -113 70 -122 91 -159 175 -310 49 -88 99 -178
111 -200 12 -22 23 -42 26 -45 3 -3 17 -27 32 -55 64 -120 74 -136 95 -141 13
-4 29 -4 36 -1 8 3 130 215 273 471 142 256 261 463 264 460 3 -3 6 -297 7
-652 0 -356 2 -655 2 -664 1 -16 15 -18 151 -18 l150 0 -1 895 0 895 -175 0
c-141 0 -178 -3 -190 -15 -8 -8 -14 -17 -14 -20 0 -5 -64 -123 -107 -193 -12
-21 -26 -46 -31 -57 -5 -11 -24 -45 -42 -75 -18 -30 -48 -84 -67 -120 -20 -36
-42 -72 -49 -81 -8 -8 -14 -19 -14 -22 0 -11 -134 -242 -142 -245 -5 -2 -6 -7
-4 -11 7 -11 -28 -51 -39 -43 -9 6 -43 62 -125 206 -9 17 -47 82 -84 144 -36
62 -77 132 -90 155 -13 23 -32 56 -42 74 -59 97 -84 144 -84 153 0 5 -5 10
-11 10 -5 0 -8 4 -5 9 4 5 2 11 -2 13 -5 1 -23 28 -39 58 l-31 55 -171 3
c-133 2 -171 0 -172 -10z"/>
</g>
</svg>
